<svg width="600" height="132" viewBox="0 0 600 132" fill="none" xmlns="http://www.w3.org/2000/svg">
<path d="M184.069 35.425V79.45C184.069 81.175 184.569 82.4 185.569 83.125C186.594 83.85 187.969 84.2125 189.694 84.2125C190.769 84.2125 191.807 84.1 192.807 83.875C193.807 83.625 194.757 83.325 195.657 82.975L198.094 89.725C196.844 90.35 195.319 90.9 193.519 91.375C191.744 91.875 189.682 92.125 187.332 92.125C183.007 92.125 179.732 90.8875 177.507 88.4125C175.282 85.9375 174.169 82.6 174.169 78.4V42.4375H162.282V35.425H184.069ZM232.978 51.2875V83.9875H243.44V91H211.453V83.9875H223.078V58.3H211.828V51.2875H232.978ZM226.565 31.2625C228.39 31.2625 229.865 31.825 230.99 32.95C232.14 34.075 232.715 35.475 232.715 37.15C232.715 38.825 232.14 40.2375 230.99 41.3875C229.865 42.5125 228.39 43.075 226.565 43.075C224.74 43.075 223.253 42.5125 222.103 41.3875C220.953 40.2375 220.378 38.825 220.378 37.15C220.378 35.475 220.953 34.075 222.103 32.95C223.253 31.825 224.74 31.2625 226.565 31.2625ZM255.111 91V51.2875H263.736L264.448 56.2C266.148 54.2 268.061 52.7 270.186 51.7C272.311 50.675 274.598 50.1625 277.048 50.1625C280.623 50.1625 283.348 51.2 285.223 53.275C287.098 55.325 288.036 58.2125 288.036 61.9375V91H278.136V65.8C278.136 63.8 278.011 62.2 277.761 61C277.511 59.775 277.036 58.9 276.336 58.375C275.636 57.825 274.623 57.55 273.298 57.55C272.223 57.55 271.186 57.7875 270.186 58.2625C269.211 58.7375 268.286 59.375 267.411 60.175C266.561 60.975 265.761 61.8625 265.011 62.8375V91H255.111ZM336.231 51.2875L321.494 68.9875L337.656 91H325.994L310.694 69.25L325.319 51.2875H336.231ZM310.131 34.375V91H300.231V35.425L310.131 34.375ZM369.915 79.1125H352.852L349.627 91H339.015L355.252 39.1375H367.852L384.052 91H373.14L369.915 79.1125ZM354.69 71.425H368.002L361.365 46.825L354.69 71.425ZM390.398 91V84.1375H395.985V58.1125H390.398V51.2875H403.523L405.36 60.4C406.81 57.025 408.635 54.4875 410.835 52.7875C413.035 51.0625 415.798 50.2 419.123 50.2C420.398 50.2 421.523 50.3 422.498 50.5C423.498 50.7 424.448 50.9625 425.348 51.2875L422.385 59.6125C421.61 59.4125 420.873 59.2625 420.173 59.1625C419.473 59.0375 418.685 58.975 417.81 58.975C415.06 58.975 412.66 60.05 410.61 62.2C408.585 64.325 407.01 67.2125 405.885 70.8625V84.1375H413.798V91H390.398ZM416.985 66.775V56.2375L418.335 51.2875H425.348L423.585 66.775H416.985ZM435.369 91V84.1375H440.956V58.1125H435.369V51.2875H448.494L450.331 60.4C451.781 57.025 453.606 54.4875 455.806 52.7875C458.006 51.0625 460.769 50.2 464.094 50.2C465.369 50.2 466.494 50.3 467.469 50.5C468.469 50.7 469.419 50.9625 470.319 51.2875L467.356 59.6125C466.581 59.4125 465.844 59.2625 465.144 59.1625C464.444 59.0375 463.656 58.975 462.781 58.975C460.031 58.975 457.631 60.05 455.581 62.2C453.556 64.325 451.981 67.2125 450.856 70.8625V84.1375H458.769V91H435.369ZM461.956 66.775V56.2375L463.306 51.2875H470.319L468.556 66.775H461.956ZM511.652 80.5375C511.652 82.0625 511.877 83.175 512.327 83.875C512.777 84.55 513.502 85.0625 514.502 85.4125L512.364 92.05C510.239 91.825 508.427 91.3 506.927 90.475C505.452 89.625 504.314 88.3625 503.514 86.6875C502.014 88.5125 500.114 89.875 497.814 90.775C495.539 91.675 493.152 92.125 490.652 92.125C486.602 92.125 483.389 90.975 481.014 88.675C478.639 86.375 477.452 83.3875 477.452 79.7125C477.452 75.4875 479.102 72.2375 482.402 69.9625C485.727 67.6625 490.427 66.5125 496.502 66.5125H502.052V64.375C502.052 62.025 501.327 60.325 499.877 59.275C498.427 58.2 496.339 57.6625 493.614 57.6625C492.339 57.6625 490.739 57.8375 488.814 58.1875C486.914 58.5125 484.952 59.025 482.927 59.725L480.564 52.9375C483.089 51.9875 485.627 51.2875 488.177 50.8375C490.752 50.3875 493.089 50.1625 495.189 50.1625C500.764 50.1625 504.902 51.35 507.602 53.725C510.302 56.075 511.652 59.4125 511.652 63.7375V80.5375ZM493.877 84.9625C495.377 84.9625 496.889 84.5375 498.414 83.6875C499.964 82.8375 501.177 81.65 502.052 80.125V72.4H498.152C494.477 72.4 491.814 72.9875 490.164 74.1625C488.539 75.3375 487.727 77 487.727 79.15C487.727 81 488.252 82.4375 489.302 83.4625C490.352 84.4625 491.877 84.9625 493.877 84.9625ZM560.897 51.2875L547.435 91.075C546.335 94.325 544.91 97.1125 543.16 99.4375C541.41 101.763 539.197 103.6 536.522 104.95C533.872 106.325 530.622 107.138 526.772 107.388L525.535 100.225C528.21 99.85 530.347 99.2875 531.947 98.5375C533.547 97.7875 534.822 96.8 535.772 95.575C536.747 94.35 537.585 92.825 538.285 91H534.91L521.897 51.2875H532.36L541.36 84.4L550.735 51.2875H560.897Z" fill="#111111"/>
<g clip-path="url(#clip0_2_9)">
<path d="M112 11H46C33.8497 11 24 20.8497 24 33V99C24 111.15 33.8497 121 46 121H112C124.15 121 134 111.15 134 99V33C134 20.8497 124.15 11 112 11Z" fill="#4F46E5"/>
<path d="M66.5418 90.2761C65.5306 91.2178 64.7479 91.8481 63.948 92.3087C60.0326 94.5637 55.2084 94.5637 51.293 92.3087C49.8503 91.4778 48.4633 90.0943 45.6894 87.3277C42.9154 84.5606 41.5284 83.1771 40.6954 81.7376C38.4349 77.8319 38.4349 73.0199 40.6954 69.1144C41.5284 67.6752 42.9154 66.2916 45.6894 63.5248L57.6205 51.6234C60.3944 48.8564 61.7814 47.4728 63.2243 46.6419C67.1397 44.3869 71.9637 44.3869 75.8791 46.6419C77.3218 47.4728 78.7088 48.8564 81.4827 51.6234C84.2569 54.3903 85.6438 55.7738 86.4769 57.2131C88.7375 61.1188 88.7375 65.9308 86.4769 69.8363C86.0148 70.6342 85.3831 71.4151 84.4386 72.4236M72.5616 60.5764C71.6171 61.5849 70.9851 62.3658 70.5233 63.1637C68.2629 67.0692 68.2629 71.8812 70.5233 75.7869C71.3564 77.2264 72.7433 78.61 75.5173 81.3766C78.2912 84.1436 79.6782 85.5272 81.1208 86.3581C85.0363 88.6131 89.8604 88.6131 93.7759 86.3581C95.2188 85.5272 96.6058 84.1436 99.3797 81.3766L111.311 69.4752C114.085 66.7084 115.472 65.3248 116.304 63.8856C118.565 59.9801 118.565 55.1681 116.304 51.2624C115.472 49.8231 114.085 48.4396 111.311 45.6725C108.537 42.9057 107.15 41.5222 105.707 40.6913C101.791 38.4363 96.9679 38.4363 93.0524 40.6913C92.2521 41.1519 91.4696 41.7822 90.4581 42.7241" stroke="white" stroke-width="8" stroke-linecap="round"/>
</g>
<defs>
<clipPath id="clip0_2_9">
<rect width="110" height="110" fill="white" transform="translate(24 11)"/>
</clipPath>
</defs>
</svg>
