<svg width="500" height="500" viewBox="0 0 500 500" fill="none" xmlns="http://www.w3.org/2000/svg">
<rect width="500" height="500" rx="100" fill="#4F46E5"/>
<path d="M199.14 350.292C194.839 354.264 191.51 356.923 188.108 358.866C171.455 368.378 150.937 368.378 134.284 358.866C128.148 355.361 122.249 349.525 110.451 337.855C98.6529 326.183 92.7538 320.347 89.211 314.275C79.5963 297.8 79.5963 277.502 89.211 261.028C92.7538 254.957 98.6529 249.121 110.451 237.45L161.196 187.248C172.994 175.576 178.893 169.74 185.03 166.235C201.683 156.723 222.2 156.723 238.853 166.235C244.989 169.74 250.888 175.576 262.686 187.248C274.485 198.919 280.384 204.755 283.927 210.826C293.542 227.301 293.542 247.599 283.927 264.073C281.962 267.439 279.275 270.733 275.258 274.987M224.743 225.013C220.726 229.267 218.038 232.561 216.074 235.927C206.46 252.401 206.46 272.699 216.074 289.174C219.617 295.246 225.516 301.082 237.314 312.752C249.112 324.424 255.011 330.26 261.147 333.765C277.8 343.277 298.318 343.277 314.971 333.765C321.108 330.26 327.007 324.424 338.805 312.752L389.55 262.55C401.348 250.879 407.247 245.043 410.789 238.972C420.404 222.498 420.404 202.2 410.789 185.725C407.247 179.654 401.348 173.818 389.55 162.146C377.752 150.475 371.853 144.639 365.717 141.134C349.062 131.622 328.547 131.622 311.894 141.134C308.49 143.077 305.162 145.736 300.86 149.709" stroke="white" stroke-width="35" stroke-linecap="round"/>
</svg>
